<svg version="1.1" id="Layer_1" xmlns="http://www.w3.org/2000/svg" xmlns:xlink="http://www.w3.org/1999/xlink" x="0px" y="0px"
	 width="100%" viewBox="0 0 592 560" enable-background="new 0 0 592 560" xml:space="preserve">
<path fill="#000000" opacity="1.000000" stroke="none" 
	d="
M9.468657,561.000000 
	C9.889112,554.094788 10.752015,547.186157 11.673814,540.285278 
	C12.898197,531.119202 18.479799,524.595215 24.946171,518.637085 
	C25.543785,518.086426 26.474173,517.241272 27.018375,517.388611 
	C33.199726,519.062012 40.104881,516.954407 45.796803,520.533081 
	C48.804050,522.423767 50.839985,521.167603 53.066952,519.750793 
	C55.789349,518.018738 53.830257,515.861572 53.243446,513.981323 
	C52.505947,511.618317 50.510696,510.387634 48.417221,509.193756 
	C40.860653,504.884430 39.615871,500.798431 43.748283,493.105804 
	C46.028320,488.861481 48.649506,484.778870 51.383583,480.806946 
	C53.460785,477.789307 56.326561,475.633759 60.300457,476.724335 
	C64.360596,477.838531 65.385872,481.112976 65.464691,484.891571 
	C65.485458,485.887024 65.733574,486.878143 65.748650,487.873199 
	C65.786903,490.399475 64.179100,493.498047 67.490204,494.990204 
	C71.666901,496.872375 76.838783,498.335083 80.421951,495.853302 
	C83.770767,493.533813 85.793800,488.779510 84.990868,483.965302 
	C79.426300,450.601166 76.198471,417.072052 77.657455,383.197266 
	C78.236366,369.756073 81.443756,356.834351 86.558601,344.534760 
	C90.141724,335.918518 98.145088,333.258850 106.986824,332.657776 
	C119.764244,331.789215 132.135040,334.277679 144.512054,336.841766 
	C144.836945,336.909088 145.145966,337.050110 145.469208,337.128723 
	C155.143677,339.481415 158.387482,338.124664 155.411179,327.767975 
	C154.325287,323.989380 156.043991,322.015900 159.076752,320.696259 
	C171.893860,315.119232 184.707535,309.531036 197.599564,304.131042 
	C202.790817,301.956665 207.734604,302.200562 211.423218,307.404205 
	C212.913208,306.263489 213.176498,304.583069 213.658264,303.083221 
	C220.224136,282.643280 230.318710,263.935974 241.647018,245.825516 
	C242.524811,244.422180 243.189255,242.882782 243.918854,241.389999 
	C244.982666,239.213440 244.630875,237.665756 242.158325,236.667496 
	C227.483551,230.742783 214.166748,222.437973 202.912277,211.431808 
	C185.690536,194.589996 172.405350,175.355759 174.820541,149.676361 
	C176.727417,129.401535 184.243546,111.007133 196.767242,94.808540 
	C207.116959,81.421822 218.931992,69.545677 233.328247,60.502811 
	C239.505005,56.622936 246.546188,54.054039 251.362244,48.190544 
	C251.967346,47.453827 252.580414,46.723652 253.310074,45.845741 
	C250.757019,43.561462 247.996155,44.360214 245.487900,44.551060 
	C238.867767,45.054771 232.275543,45.921864 225.656235,46.440617 
	C219.138153,46.951427 217.204132,45.182232 216.966309,38.627201 
	C216.795761,33.925640 217.874313,29.371456 219.123795,24.872284 
	C220.097519,21.366102 222.345840,19.690056 226.093399,19.759117 
	C235.738724,19.936867 245.240387,21.758705 254.898026,22.084846 
	C258.787659,22.216198 259.885956,21.196753 260.621948,18.012575 
	C261.836639,12.757170 264.203552,11.053055 269.198486,13.341125 
	C275.734497,16.335136 281.216278,15.015522 287.152557,11.911782 
	C294.935303,7.842591 297.823761,8.574755 303.691071,14.898671 
	C305.089722,16.406179 306.562927,17.193666 308.534424,16.440828 
	C311.359283,15.362122 314.110870,14.453995 317.260956,15.255922 
	C319.154358,15.737935 319.758575,13.944907 320.187012,12.502564 
	C320.754822,10.591028 321.193512,8.638919 321.632172,6.691735 
	C322.407440,3.250288 324.566406,1.529621 328.053925,1.693619 
	C332.882660,1.920690 337.656799,2.709475 342.261810,4.138071 
	C346.296783,5.389832 346.770233,8.837500 346.071045,12.304162 
	C345.449799,15.384344 344.245026,18.351061 343.241638,21.349060 
	C341.307465,27.128338 342.359131,29.169033 348.513702,29.483816 
	C355.007355,29.815945 361.420319,31.500170 367.817108,31.415079 
	C385.156586,31.184437 402.371216,33.503876 419.656982,33.473408 
	C432.611481,33.450573 445.760162,34.067619 458.463654,31.403097 
	C464.981140,30.036068 470.110291,30.945379 475.420288,34.158012 
	C487.384613,41.396564 499.411316,48.532383 511.347198,55.817184 
	C513.413696,57.078415 516.136658,58.504868 515.642639,61.394863 
	C515.158142,64.229088 512.163818,63.936031 509.948669,64.498962 
	C495.400604,68.196022 480.228424,67.741615 465.636353,71.172119 
	C464.232086,71.502243 462.568085,71.432884 461.180176,71.022758 
	C434.608368,63.171040 407.100525,60.856297 379.809387,57.354713 
	C367.470825,55.771622 355.062378,54.461803 342.589996,54.405945 
	C335.814209,54.375591 333.881470,56.126617 332.140320,62.658459 
	C330.681152,68.132339 328.895874,73.519630 326.406860,78.612892 
	C324.089478,83.354973 321.827484,84.036156 317.147980,81.913322 
	C313.967621,80.470566 310.770752,79.064163 307.579773,77.644882 
	C304.110596,76.101868 302.336426,73.960213 305.092468,70.329567 
	C307.733856,66.849991 305.590393,65.036606 302.629852,64.000839 
	C296.875641,61.987701 290.955658,61.409081 284.969940,63.105255 
	C248.531982,73.430634 225.290695,98.278450 211.020370,132.039291 
	C204.199509,148.176132 203.666962,165.224503 212.540024,181.207016 
	C220.079758,194.787857 231.977737,203.565277 246.720337,207.795227 
	C256.244873,210.527985 265.580383,214.181656 275.570221,215.276230 
	C279.189392,215.672775 282.504211,215.709167 285.434998,213.166122 
	C288.191132,210.774582 292.253082,211.842087 295.436951,209.353546 
	C289.531128,207.311920 283.449951,206.544357 277.927979,203.920837 
	C274.184448,202.142273 271.092865,199.755203 268.712494,196.488449 
	C266.360291,193.260300 265.629852,189.727509 268.584991,186.439789 
	C270.401520,184.418823 270.516449,181.919769 271.233734,179.560654 
	C271.877106,177.444443 272.785095,175.255554 275.383911,175.153992 
	C278.002686,175.051605 279.026062,177.156921 279.781525,179.261169 
	C283.424377,189.407730 290.073212,192.606934 300.211639,188.943192 
	C313.799011,184.033066 322.601715,174.201553 329.251404,161.008636 
	C320.896790,157.933670 314.150299,153.591034 308.912598,147.091858 
	C306.428528,144.009491 304.795807,140.676361 304.408234,136.739105 
	C303.991058,132.501709 305.622498,130.451233 309.647888,131.183456 
	C312.893921,131.773895 313.380005,130.259094 313.726898,127.823708 
	C314.034729,125.662498 314.452148,123.372467 317.084473,122.838364 
	C319.702423,122.307159 322.254944,122.899780 323.837402,125.096436 
	C327.162903,129.712860 330.982666,130.556137 335.848328,127.576683 
	C337.231384,126.729790 338.941254,126.328056 340.555756,125.963516 
	C346.730927,124.569206 349.746796,121.829895 348.424805,115.538200 
	C346.144348,104.684723 353.398743,99.597046 359.914490,94.227211 
	C363.655304,91.144279 367.941986,88.313507 372.987366,87.141289 
	C379.350800,85.662857 382.529175,87.652191 383.373352,94.007729 
	C383.439056,94.502197 383.464783,95.003883 383.560211,95.492218 
	C385.185120,103.805687 387.862885,104.725662 394.302887,98.985771 
	C400.267426,93.669678 406.963318,89.897141 414.839691,88.265541 
	C416.723419,87.875336 418.616180,87.429482 419.854462,89.207512 
	C421.324066,91.317711 420.009613,93.185425 418.440369,94.438217 
	C411.777496,99.757675 412.025635,106.453102 414.132874,113.937393 
	C418.414795,113.272125 420.910248,110.308716 423.689270,107.805130 
	C432.183136,100.153122 444.366333,102.646912 449.018036,112.985054 
	C451.036346,117.470764 450.800537,121.686844 447.666321,125.633614 
	C446.861053,126.647667 445.730957,127.530327 445.806854,129.408661 
	C448.918671,131.964005 451.732605,130.887695 454.240173,128.236481 
	C457.348694,124.949883 459.503754,120.974960 461.889069,117.166313 
	C465.288116,111.739006 469.830994,108.197601 476.659058,108.823936 
	C478.700928,109.011238 480.807068,109.543488 481.618988,111.621048 
	C482.430817,113.698418 481.389252,115.730965 479.823700,116.978661 
	C471.307983,123.765289 469.903107,133.125809 470.293243,143.057129 
	C470.715546,153.807022 459.174500,165.000443 446.283417,165.245605 
	C444.171844,165.285751 442.480042,164.164093 440.182678,162.848053 
	C438.259247,161.037537 437.003479,159.448807 435.440002,158.267212 
	C430.677612,154.668015 427.954559,156.054428 427.198608,162.977463 
	C431.517120,162.977463 435.771942,162.977463 440.026794,162.977463 
	C443.891571,166.600037 446.707306,170.801254 447.215881,176.233414 
	C447.456726,178.805847 447.378662,181.531448 444.772491,182.805405 
	C441.821625,184.247864 440.358398,181.713211 438.675323,179.853165 
	C436.893188,177.883621 435.857239,173.629288 431.888702,176.883347 
	C429.293274,179.011475 429.675049,182.250839 432.950775,183.065720 
	C441.100800,185.093155 449.510162,187.683212 456.957764,180.899582 
	C457.692719,180.230148 458.558014,179.703857 459.362457,179.110626 
	C461.185364,177.766281 463.061279,175.420502 465.368988,177.779007 
	C467.462036,179.918076 465.666687,182.154648 464.422913,184.084579 
	C461.442108,188.709839 458.034454,192.979721 454.202057,196.967422 
	C444.983704,206.559296 425.625061,207.757324 416.496460,196.981430 
	C414.571075,194.708618 412.461365,192.456665 409.408020,191.638412 
	C405.821228,190.677216 403.165680,192.829575 403.768921,196.108444 
	C405.502228,205.530380 405.497437,205.520203 396.272064,209.862381 
	C395.748169,210.108978 395.405609,210.740875 394.184448,212.035309 
	C400.653198,212.929565 406.268036,213.737595 411.891846,214.477661 
	C434.055176,217.394226 449.212463,230.804871 450.361267,253.604202 
	C450.996368,266.207947 450.240326,278.402313 446.642151,290.481934 
	C446.073517,292.390961 444.756927,294.475769 446.296356,297.391479 
	C494.458374,269.465302 542.327026,241.268188 590.226929,210.908005 
	C590.226929,221.182968 590.264709,230.275681 590.198181,239.367615 
	C590.183105,241.432861 588.384460,241.937027 586.800903,242.510803 
	C542.953491,258.398346 503.910706,283.212891 464.889832,308.078949 
	C456.330566,313.533325 447.665070,318.823303 438.988373,324.089966 
	C435.741730,326.060699 433.648834,327.998810 435.000519,332.469482 
	C436.266846,336.657776 434.788879,340.567535 431.439392,343.770569 
	C424.177948,350.714447 416.139130,355.916412 405.841064,357.065735 
	C402.628174,357.424316 399.826141,356.641693 397.250488,355.164551 
	C394.017822,353.310547 391.181976,353.310760 387.898102,355.117096 
	C375.219849,362.090698 362.431854,368.864655 349.702118,375.745056 
	C345.695496,377.910645 343.701050,380.525635 346.431702,385.355438 
	C348.872253,389.672119 350.423615,394.486420 352.444763,399.046844 
	C354.567902,403.837402 354.476166,408.108887 349.806671,411.409302 
	C339.632111,418.600586 329.462341,425.798920 319.256714,432.946014 
	C315.995148,435.230133 312.666199,437.424469 309.294830,439.543365 
	C306.759094,441.137146 304.134979,442.701355 301.062836,442.937897 
	C298.196503,443.158630 296.076904,440.261963 292.558899,440.794220 
	C292.280487,446.725220 294.289703,452.260681 296.052795,457.601532 
	C302.882690,478.290894 312.183441,497.698975 327.214447,513.911987 
	C332.564148,519.682312 337.795105,520.701538 344.475098,516.586365 
	C355.905487,509.544739 362.315918,498.458435 366.002563,486.270325 
	C372.994904,463.153473 381.765839,440.694824 389.716156,417.934723 
	C390.209778,416.521545 390.771301,415.129272 391.360657,413.752716 
	C396.010925,402.891266 407.550903,401.427429 415.002319,410.778687 
	C416.139923,412.206360 417.147797,413.758606 418.054657,415.345276 
	C422.035736,422.310760 428.123413,424.793030 435.967194,424.768616 
	C447.646515,424.732239 451.663177,428.679504 452.243042,440.154388 
	C452.381592,442.895874 453.624054,444.291107 455.736389,445.646637 
	C461.968964,449.646057 464.071472,460.118835 460.074188,466.448761 
	C459.239716,467.770203 458.170197,469.083252 456.599060,469.008301 
	C452.190826,468.798035 451.278076,471.688049 450.213837,475.089630 
	C447.913086,482.443085 442.147400,486.604736 435.551758,486.271637 
	C431.196045,486.051697 428.851959,483.976105 428.531738,479.499756 
	C428.229584,475.275665 429.010315,471.163269 429.966370,467.164673 
	C430.757355,463.856323 429.674591,461.681122 427.488159,459.654327 
	C424.413177,456.803894 420.852844,454.700867 417.172333,452.697479 
	C413.079254,450.469635 411.342438,452.499359 410.132446,455.953308 
	C406.504425,466.309479 402.872772,476.664642 399.313324,487.044525 
	C393.588196,503.739716 387.977692,520.538574 377.902100,535.229736 
	C370.463165,546.076416 361.608185,555.157776 347.561554,557.659546 
	C333.510406,560.162048 322.063171,554.570557 312.209869,546.220825 
	C289.968567,527.373596 275.069061,502.966949 262.445953,477.008270 
	C260.234528,472.460510 258.427612,467.554443 255.090530,463.637024 
	C252.191971,464.029510 251.252365,466.494843 249.505646,467.918579 
	C245.424026,471.245575 241.070877,473.473236 235.759705,471.039368 
	C230.633728,468.690399 228.522003,464.443756 228.662460,458.936249 
	C228.683701,458.103760 228.675842,457.269318 228.647552,456.436951 
	C228.467255,451.131378 226.938370,450.039276 222.177811,452.502258 
	C207.701050,459.992310 193.260406,467.557800 178.927094,475.318115 
	C162.396454,484.268066 146.026566,493.514587 129.523315,502.515747 
	C122.232635,506.492249 121.937088,506.739471 124.558815,514.336670 
	C125.555443,517.224731 126.016281,520.116028 126.015640,523.143250 
	C126.012741,536.878845 114.426147,544.209900 101.919502,538.110657 
	C97.506416,535.958435 92.716171,533.815918 91.230064,527.676453 
	C83.055809,531.431152 75.852806,536.072083 68.824547,540.958008 
	C67.373863,541.966553 67.509567,544.253174 67.151474,546.058655 
	C66.213631,550.787170 65.089249,555.478577 64.019608,560.592407 
	C45.979103,561.000000 27.958210,561.000000 9.468657,561.000000 
M349.267883,357.736755 
	C354.466492,354.138153 359.965607,350.895660 364.775696,346.836639 
	C369.215332,343.090271 375.695435,341.670471 378.475281,336.320862 
	C382.892609,327.820038 388.570099,320.747559 396.855927,315.832520 
	C398.119019,315.083282 399.361176,314.086273 400.230072,312.918854 
	C406.890594,303.970123 413.777100,294.974701 418.205353,284.800873 
	C426.170990,266.499817 422.807739,249.662979 403.021271,241.488297 
	C390.032104,236.121887 376.487213,235.885132 362.792877,236.527084 
	C351.448608,237.058899 341.349701,241.358002 332.397888,247.849609 
	C310.615509,263.645660 298.145203,286.024048 290.214172,311.042145 
	C287.624573,319.210754 288.983185,328.000580 290.940002,336.829285 
	C294.799011,335.487579 298.014008,334.174286 301.339874,333.268097 
	C304.694580,332.354004 308.162079,331.857208 311.575409,331.154449 
	C320.895813,329.235504 325.636200,331.913635 328.782135,340.990723 
	C329.431854,342.865326 330.053131,344.798157 330.305023,346.753448 
	C331.161957,353.405426 336.050629,358.116425 337.842773,364.434906 
	C342.289124,362.852020 345.517242,360.557770 349.267883,357.736755 
M169.339417,461.751251 
	C182.940475,454.856415 196.000381,447.049469 209.230927,439.031494 
	C206.884552,436.919617 204.577332,435.686249 203.589035,433.771973 
	C201.726486,430.164398 199.575180,430.610046 196.779251,432.190125 
	C193.982651,433.770569 190.837265,434.298615 187.731384,434.846039 
	C181.697189,435.909698 174.450043,431.837860 171.439697,425.789917 
	C168.571442,420.027435 169.291153,417.421173 175.338989,411.510254 
	C175.781342,411.077881 176.089539,410.508301 176.337601,410.169708 
	C175.916489,408.461578 174.578064,408.407318 173.601410,407.863464 
	C167.593613,404.517792 163.038208,399.815552 160.495987,393.375641 
	C159.018402,389.632721 159.060440,386.395325 163.391403,384.148407 
	C167.347336,382.096039 167.400528,380.034393 163.591370,377.695953 
	C152.189041,370.695953 139.693832,366.975769 126.349205,366.391998 
	C121.434631,366.177032 117.554688,368.540924 115.793221,373.266266 
	C114.057655,377.922180 112.451859,382.680573 111.395927,387.526245 
	C107.131325,407.096588 105.722878,426.911285 107.502068,446.869904 
	C108.489059,457.941803 109.963463,468.972900 111.366180,480.003571 
	C111.839928,483.729004 112.340347,487.512329 114.332825,491.508392 
	C133.133774,482.663635 150.910416,472.378326 169.339417,461.751251 
z"/>
</svg>